<svg id="Capa_1" enable-background="new 0 0 512 512" height="40px" viewBox="0 0 512 512" width="512" xmlns="http://www.w3.org/2000/svg"><g><path d="m273.082 238.546c-.003 0-.005 0-.007 0-4.139 0-7.496 3.354-7.5 7.493l-.011 11.848c-.004 4.142 3.351 7.503 7.493 7.507h.007c4.139 0 7.496-3.354 7.5-7.493l.011-11.848c.003-4.142-3.351-7.503-7.493-7.507z"/><path d="m401.079 238.699c-.003 0-.005 0-.008 0-4.139 0-7.496 3.354-7.5 7.492l-.012 11.847c-.004 4.143 3.351 7.504 7.492 7.508h.008c4.139 0 7.496-3.354 7.5-7.492l.012-11.847c.004-4.143-3.351-7.504-7.492-7.508z"/><path d="m343.778 251.147c-4.204 2.127-9.228 2.119-13.419-.014-3.691-1.878-8.207-.408-10.085 3.283-1.878 3.692-.408 8.208 3.284 10.086 8.079 4.111 18.157 4.499 26.992.029 3.696-1.87 5.177-6.382 3.307-10.078-1.872-3.696-6.385-5.174-10.079-3.306z"/><path d="m284.17 222.333-19.53-3.466c-4.08-.722-7.972 1.996-8.695 6.074-.724 4.078 1.996 7.972 6.074 8.695l19.53 3.466c.443.078.884.116 1.319.116 3.568 0 6.731-2.556 7.376-6.19.724-4.078-1.996-7.971-6.074-8.695z"/><path d="m409.572 212.81-19.538 3.424c-4.08.715-6.808 4.603-6.093 8.683.639 3.642 3.805 6.206 7.379 6.206.43 0 .865-.037 1.304-.113l19.538-3.424c4.08-.715 6.808-4.603 6.093-8.683-.716-4.08-4.598-6.8-8.683-6.093z"/><path d="m443.381 169.618c7.171-11.139 10.954-23.784 10.954-36.818 0-7.072-1.103-14.112-3.278-20.925-1.26-3.946-5.479-6.123-9.426-4.863s-6.123 5.479-4.863 9.426c1.703 5.336 2.567 10.841 2.567 16.362 0 9.935-2.837 19.611-8.235 28.202h-17.28c-19.692 0-30.814-3.995-42.59-8.225-12.209-4.385-24.834-8.92-46.241-8.92h-71.182c10.431-40.905 44.941-65.022 94.002-65.022h37.679c14.323 0 27.693 5.434 37.648 15.301 2.94 2.916 7.689 2.894 10.606-.048 2.916-2.941 2.895-7.69-.048-10.606-12.782-12.669-29.902-19.646-48.207-19.646h-37.679c-3.361 0-6.659.12-9.908.329-7.193-3.105-32.439-9.359-59.408-8.083 7.137-9.839 10.435-21.664 9.34-31.937-1.491-13.999-10.643-24.145-26.552-24.145-19.825 0-38.312 11.82-46.166 30.871-1.401.037-2.783.146-4.145.324-7.774-19.301-26.429-31.195-46.22-31.195-10.8 0-18.93 5.445-23.343 13.081-67.47-7.104-109.024 71.86-66.551 123.588-7.999 22.16.472 46.818 19.687 59.581-18.39 28.893-.105 66.614 33.056 71.205 16.016 55.104 59.078 96.904 112.448 112.426-7.371 9.709-11.45 21.619-11.45 34.053v17.476c0 4.143 3.358 7.5 7.5 7.5s7.5-3.357 7.5-7.5v-17.476c0-11.469 4.73-22.334 13.047-30.147 9.657 1.753 19.575 2.67 29.669 2.67 10.452 0 20.676-.986 30.594-2.85.804.781 1.581 1.587 2.33 2.421-.849.7-1.656 1.449-2.436 2.227-8.569-1.974-17.422-.661-25.072 3.755-3.587 2.071-4.816 6.658-2.745 10.245 2.071 3.588 6.658 4.814 10.245 2.745 4.548-2.628 9.851-3.32 14.932-1.955 5.075 1.364 9.313 4.615 11.934 9.154 7.919 13.717 24.164 19.691 38.703 15.238l19.896 34.463c-33.935 15.145-74.095 2.129-92.664-30.034-2.071-3.587-6.658-4.815-10.245-2.745-3.587 2.071-4.816 6.658-2.745 10.245 11.386 19.722 30.001 34.15 51.796 40.401-3.328 10.201-12.823 17.233-23.828 17.233h-38.31c-13.84 0-25.101-11.26-25.101-25.101v-10.49c0-4.143-3.358-7.5-7.5-7.5s-7.5 3.357-7.5 7.5v10.49c0 22.111 17.989 40.101 40.101 40.101h38.31c18.251 0 33.895-12.114 38.633-29.341 18.786 2.041 37.328-1.99 53.245-11.181l19.922-11.502c16.591-9.578 22.27-30.762 12.688-47.356-9.58-16.593-30.759-22.269-47.356-12.688l-9.028 5.212c-3.839-16.949-19.735-28.731-37.444-26.865 86.098-28.213 134.371-121.35 105.714-208.661zm-51.743 243.304c9.414-5.434 21.428-2.218 26.866 7.198 5.423 9.392 2.193 21.443-7.198 26.866l-13.427 7.752-19.667-34.065zm-90.253-341.281c-33.307 12.281-56.246 38.486-63.435 74.407-25.631 11.113-48.39 26.863-67.369 46.093-6.866-8.607-16.634-14.571-27.441-16.758 9.025-28.199 26.372-53.315 49.693-71.873 25.353 18.236 61.032 1.54 63.335-29.581 14.935-3.049 30.173-3.805 45.217-2.288zm-38.909-56.618c6.195.223 9.708 3.825 10.441 10.709 1.059 9.943-5.018 25.072-18.82 32.154-3.875-11.216-12.589-20.188-23.64-24.41 6.151-11.535 18.252-18.945 32.019-18.453zm-46.286 30.821c13.84 0 25.101 11.26 25.101 25.1 0 13.841-11.26 25.102-25.101 25.102s-25.101-11.261-25.101-25.102c0-13.84 11.26-25.1 25.101-25.1zm-62.893-22.636c1.211-4.646 5.401-8.013 10.188-8.185 14.896-.539 27.659 8.184 33.191 20.906-9.224 5.161-16.205 13.857-19.106 24.243-19.357-5.848-27.03-26.374-24.273-36.964zm-62.956 115.252c1.317-2.774.809-6.072-1.282-8.321-37.778-40.651-5.251-106.765 48.87-102.329.458 22.57 16.025 42.261 38.408 47.542.692 6.301 2.854 12.162 6.128 17.245-26.235 21.222-45.462 50.053-54.861 82.31-8.601 1.19-16.471 4.746-22.933 9.985-15.718-9.162-22.498-29.221-14.33-46.432zm270.61 274.45c-8.145 2.778-17.404-.482-21.867-8.21-2.001-3.466-4.538-6.504-7.495-9.032 13.26-7.541 29.487 2.237 29.362 17.242zm-74.639-41.453c-68.718 0-128.593-46.437-145.604-112.927-.84-3.282-3.776-5.594-7.164-5.64-17.253-.235-31.29-14.464-31.29-31.717s14.035-31.48 31.306-31.716l.422-.013c12.166 0 23.414 7.102 28.655 18.093 2.295 4.81 8.758 5.765 12.34 1.794 19.764-21.925 43.95-39.053 71.183-50.475h78.827c18.794 0 29.663 3.904 41.17 8.037 12.465 4.478 25.355 9.107 47.66 9.107l15.853-.001c30.577 97.067-42.409 195.458-143.358 195.458z" fill="F4F8F2"/></g></svg>