<?xml version="1.0" encoding="utf-8"?>
<svg viewBox="0 0 500 500" xmlns="http://www.w3.org/2000/svg">
  <g transform="matrix(0.633527, 0, 0, 0.616519, 72.101173, 36.098297)" style="">
    <path d="m273.082 238.546c-.003 0-.005 0-.007 0-4.139 0-7.496 3.354-7.5 7.493l-.011 11.848c-.004 4.142 3.351 7.503 7.493 7.507h.007c4.139 0 7.496-3.354 7.5-7.493l.011-11.848c.003-4.142-3.351-7.503-7.493-7.507z" style="fill: rgb(244, 248, 242);"/>
    <path d="m401.079 238.699c-.003 0-.005 0-.008 0-4.139 0-7.496 3.354-7.5 7.492l-.012 11.847c-.004 4.143 3.351 7.504 7.492 7.508h.008c4.139 0 7.496-3.354 7.5-7.492l.012-11.847c.004-4.143-3.351-7.504-7.492-7.508z" style="fill: rgb(244, 248, 242);"/>
    <path d="m343.778 251.147c-4.204 2.127-9.228 2.119-13.419-.014-3.691-1.878-8.207-.408-10.085 3.283-1.878 3.692-.408 8.208 3.284 10.086 8.079 4.111 18.157 4.499 26.992.029 3.696-1.87 5.177-6.382 3.307-10.078-1.872-3.696-6.385-5.174-10.079-3.306z" style="fill: rgb(244, 248, 242);"/>
    <path d="m284.17 222.333-19.53-3.466c-4.08-.722-7.972 1.996-8.695 6.074-.724 4.078 1.996 7.972 6.074 8.695l19.53 3.466c.443.078.884.116 1.319.116 3.568 0 6.731-2.556 7.376-6.19.724-4.078-1.996-7.971-6.074-8.695z" style="fill: rgb(244, 248, 242);"/>
    <path d="m409.572 212.81-19.538 3.424c-4.08.715-6.808 4.603-6.093 8.683.639 3.642 3.805 6.206 7.379 6.206.43 0 .865-.037 1.304-.113l19.538-3.424c4.08-.715 6.808-4.603 6.093-8.683-.716-4.08-4.598-6.8-8.683-6.093z" style="fill: rgb(244, 248, 242);"/>
    <path d="M 443.381 169.618 C 450.552 158.479 454.335 145.834 454.335 132.8 C 454.335 125.728 453.232 118.688 451.057 111.875 C 449.797 107.929 445.578 105.752 441.631 107.012 C 437.684 108.272 435.508 112.491 436.768 116.438 C 438.471 121.774 439.335 127.279 439.335 132.8 C 439.335 142.735 436.498 152.411 431.1 161.002 L 413.82 161.002 C 394.128 161.002 383.006 157.007 371.23 152.777 C 359.021 148.392 346.396 143.857 324.989 143.857 L 253.807 143.857 C 264.238 102.952 298.748 78.835 347.809 78.835 L 385.488 78.835 C 399.811 78.835 413.181 84.269 423.136 94.136 C 426.076 97.052 430.825 97.03 433.742 94.088 C 436.658 91.147 436.637 86.398 433.694 83.482 C 420.912 70.813 403.792 63.836 385.487 63.836 L 347.808 63.836 C 344.447 63.836 341.149 63.956 337.9 64.165 C 330.707 61.06 305.461 54.806 278.492 56.082 C 285.629 46.243 288.927 34.418 287.832 24.145 C 286.341 10.146 277.189 0 261.28 0 C 241.455 0 222.968 11.82 215.114 30.871 C 213.713 30.908 212.331 31.017 210.969 31.195 C 203.195 11.894 184.54 0 164.749 0 C 153.949 0 145.819 5.445 141.406 13.081 C 108.556 9.622 81.85 26.566 67.994 50.836 C 53.391 76.413 53.061 110.126 74.855 136.669 C 66.856 158.829 75.327 183.487 94.542 196.25 C 76.152 225.143 94.437 262.864 127.598 267.455 C 143.614 322.559 186.676 364.359 240.046 379.881 C 232.675 389.59 228.596 401.5 228.596 413.934 L 228.596 431.41 C 228.596 435.553 231.954 438.91 236.096 438.91 C 240.238 438.91 243.596 435.553 243.596 431.41 L 243.596 413.934 C 243.596 402.465 248.326 391.6 256.643 383.787 C 266.3 385.54 276.218 386.457 286.312 386.457 C 296.764 386.457 306.988 385.471 316.906 383.607 C 317.71 384.388 318.487 385.194 319.236 386.028 C 318.387 386.728 317.58 387.477 316.8 388.255 C 308.231 386.281 299.378 387.594 291.728 392.01 C 288.141 394.081 286.912 398.668 288.983 402.255 C 291.054 405.843 295.641 407.069 299.228 405 C 303.776 402.372 309.079 401.68 314.16 403.045 C 319.235 404.409 323.473 407.66 326.094 412.199 C 334.013 425.916 350.258 431.89 364.797 427.437 L 384.693 461.9 C 350.758 477.045 310.598 464.029 292.029 431.866 C 289.958 428.279 285.371 427.051 281.784 429.121 C 278.197 431.192 276.968 435.779 279.039 439.366 C 290.425 459.088 309.04 473.516 330.835 479.767 C 327.507 489.968 318.012 497 307.007 497 L 268.697 497 C 254.857 497 243.596 485.74 243.596 471.899 L 243.596 461.409 C 243.596 457.266 240.238 453.909 236.096 453.909 C 231.954 453.909 228.596 457.266 228.596 461.409 L 228.596 471.899 C 228.596 494.01 246.585 512 268.697 512 L 307.007 512 C 325.258 512 340.902 499.886 345.64 482.659 C 364.426 484.7 382.968 480.669 398.885 471.478 L 418.807 459.976 C 435.398 450.398 441.077 429.214 431.495 412.62 C 421.915 396.027 400.736 390.351 384.139 399.932 L 375.111 405.144 C 371.272 388.195 355.376 376.413 337.667 378.279 C 423.765 350.066 472.038 256.929 443.381 169.618 Z M 391.638 412.922 C 401.052 407.488 413.066 410.704 418.504 420.12 C 423.927 429.512 420.697 441.563 411.306 446.986 L 397.879 454.738 L 378.212 420.673 L 391.638 412.922 Z M 301.385 71.641 C 268.078 83.922 245.139 110.127 237.95 146.048 C 212.319 157.161 189.56 172.911 170.581 192.141 C 163.715 183.534 153.947 177.57 143.14 175.383 C 152.165 147.184 169.512 122.068 192.833 103.51 C 218.186 121.746 253.865 105.05 256.168 73.929 C 271.103 70.88 286.341 70.124 301.385 71.641 Z M 262.476 15.023 C 268.671 15.246 272.184 18.848 272.917 25.732 C 273.976 35.675 267.899 50.804 254.097 57.886 C 250.222 46.67 241.508 37.698 230.457 33.476 C 236.608 21.941 248.709 14.531 262.476 15.023 Z M 216.19 45.844 C 230.03 45.844 241.291 57.104 241.291 70.944 C 241.291 84.785 230.031 96.046 216.19 96.046 C 202.349 96.046 191.089 84.785 191.089 70.944 C 191.089 57.104 202.349 45.844 216.19 45.844 Z M 153.297 23.208 C 154.508 18.562 158.698 15.195 163.485 15.023 C 178.381 14.484 191.144 23.207 196.676 35.929 C 187.452 41.09 180.471 49.786 177.57 60.172 C 158.213 54.324 150.54 33.798 153.297 23.208 Z M 90.341 138.46 C 91.658 135.686 91.15 132.388 89.059 130.139 C 73.635 113.542 69.93 92.7 74.63 74.148 C 81.442 47.261 105.905 25.185 137.929 27.81 C 138.387 50.38 153.954 70.071 176.337 75.352 C 177.029 81.653 179.191 87.514 182.465 92.597 C 156.23 113.819 137.003 142.65 127.604 174.907 C 119.003 176.097 111.133 179.653 104.671 184.892 C 88.953 175.73 82.173 155.671 90.341 138.46 Z M 360.951 412.91 C 352.806 415.688 343.547 412.428 339.084 404.7 C 337.083 401.234 334.546 398.196 331.589 395.668 C 344.849 388.127 361.076 397.905 360.951 412.91 Z M 286.312 371.457 C 217.594 371.457 157.719 325.02 140.708 258.53 C 139.868 255.248 136.932 252.936 133.544 252.89 C 116.291 252.655 102.254 238.426 102.254 221.173 C 102.254 203.92 116.289 189.693 133.56 189.457 L 133.982 189.444 C 146.148 189.444 157.396 196.546 162.637 207.537 C 164.932 212.347 171.395 213.302 174.977 209.331 C 194.741 187.406 218.927 170.278 246.16 158.856 L 324.987 158.856 C 343.781 158.856 354.65 162.76 366.157 166.893 C 378.622 171.371 391.512 176 413.817 176 L 429.67 175.999 C 460.247 273.066 387.261 371.457 286.312 371.457 Z" style="fill: rgb(244, 248, 242);"/>
  </g>
</svg>