<svg height="512" viewBox="0 0 512 512" width="512" xmlns="http://www.w3.org/2000/svg"><g><g><path d="m96 16h400v480h-64s24-64-8-120-72-80-80-144-40-112-88-120-96-16-120-40c-20.4-20.4-40-56-40-56z" fill="#94a4a5"/><g><path d="m415.934 332.2c-9.645-17.734-10.689-38.826-9.761-58.991 1.059-23.018 4.4-45.991 3.3-69.008s-7.164-46.729-22.446-63.975c-21.222-23.951-55.184-30.786-86.406-37.8a997.755 997.755 0 0 1 -151.587-47c-15.811-6.326-33.434-15.426-37.91-31.426h-.007l1.38 5.987-1.38-5.987h-15.117s11.6 27.6 32 48c24 24 72 32 120 40s80 56 88 120 48 88 80 144 8 120 8 120h56c-3.678-42.95-11.011-95.035-36.947-128.945-8.96-11.713-20.073-21.904-27.119-34.855z" fill="#697a7a"/><path d="m451.007 179.963c-10.293-17.683-26.292-31.155-40.6-45.782-30.542-31.227-51.551-77.111-66.407-118.181h-248c4.472 16 37.223 33.1 53.03 39.422a997.755 997.755 0 0 0 151.587 47c31.222 7.015 65.184 13.85 86.406 37.8 15.282 17.246 21.345 40.959 22.446 63.975s-2.237 45.99-3.3 69.008c-.928 20.165.116 41.257 9.761 58.991 7.046 12.955 18.159 23.146 27.119 34.859 25.936 33.91 33.269 86 36.947 128.945h16v-192c-8.577-14.121-21.352-31.88-24.464-48.314-4.889-25.842-7.293-52.993-20.525-75.723z" fill="#7a8786"/></g><path d="m347.48 342.88c8.07 2.63 15.93 6.22 20.48 13.18 3.02 4.61 4.19 10.23 4.25 15.74a87.173 87.173 0 0 1 -1.9 16.4c6.83 2.02 12.33 4.14 17.56 8.97 2.93 2.71 5.7 6.49 4.74 10.36a8.39 8.39 0 0 1 -4.94 5.34 20.4 20.4 0 0 1 -7.36 1.36 74.293 74.293 0 0 1 -40.79-10.31 45.743 45.743 0 0 1 .57-21.48c-4.86-3-9.8-5.82-14.73-8.66z" fill="#eaaa94"/><g fill="#2c3f51"><path d="m359.15 347.914a57.758 57.758 0 0 0 -11.67-5.034l-22.12 30.9c3.593 2.07 7.192 4.131 10.761 6.257a63.1 63.1 0 0 0 23.029-32.123z"/><path d="m387.87 397.17c-5.23-4.83-10.73-6.95-17.56-8.97l.028-.155a29.879 29.879 0 0 1 -31.528 1.017 47.666 47.666 0 0 0 .71 14.858 74.293 74.293 0 0 0 40.79 10.31 20.4 20.4 0 0 0 7.36-1.36 8.39 8.39 0 0 0 4.94-5.34c.96-3.87-1.81-7.65-4.74-10.36z"/></g><path d="m300.5 307.2c7.38 2.01 16.02 6.17 21.2-.71 5.83-7.73 8.19-15.12 17.25-20.35a40.117 40.117 0 0 1 34.89-2.28c.51-5.01 1.07-10.2 3.61-14.55s7.64-7.63 12.53-6.43c7.1 1.75 9.12 10.85 8.98 18.16a105.951 105.951 0 0 1 -6.91 35.64h-38.06c-2.24 11.15-4.51 22.4-9.08 32.81s-11.72 20.04-21.66 25.56c-14.31 7.95-32.45 6.17-47.3-.72s-27.09-18.26-38.9-29.59c-4.57-4.39-9.2-8.93-12.43-14.31l23.38-50.43z" fill="#fad6c6"/><path d="m326.875 298.747c-1.59 2.494-3.179 5.1-5.175 7.743-2.9 3.854-6.888 4.243-11.131 3.487a268.558 268.558 0 0 1 -34.4 64.453c14.808 6.805 32.838 8.531 47.077.62 9.94-5.52 17.08-15.16 21.66-25.56 4.555-10.376 6.825-21.587 9.058-32.7a49.021 49.021 0 0 0 -27.089-18.043z" fill="#35495e"/><path d="m300.5 307.2-52.5-27.2-23.38 50.43c3.23 5.38 7.86 9.92 12.43 14.31 11.81 11.33 24.05 22.71 38.9 29.59l.223.1a268.558 268.558 0 0 0 34.4-64.453c-3.337-.593-6.827-1.893-10.073-2.777z" fill="#f98800"/><path d="m389.98 262.88c-4.89-1.2-10 2.08-12.53 6.43s-3.1 9.54-3.61 14.55c-.054-.022-.109-.04-.163-.062a54.116 54.116 0 0 1 .506 32.882h17.867a105.951 105.951 0 0 0 6.91-35.64c.14-7.31-1.88-16.41-8.98-18.16z" fill="#35495e"/><path d="m243.34 206.23a121.214 121.214 0 0 1 13.97-18.76c4.88-5.38 10.51-10.48 17.48-12.52s15.51-.19 19.4 5.94a13.1 13.1 0 0 1 -16.82 18.78 288.5 288.5 0 0 0 -21.48 51.82z" fill="#eaaa94"/><g><path d="m294.19 180.89c-3.89-6.13-12.44-7.98-19.4-5.94-5.01 1.466-9.325 4.517-13.169 8.112a34.833 34.833 0 0 1 15.279 17.523c.161-.3.313-.611.475-.915a13.1 13.1 0 0 0 16.82-18.78z" fill="#bcc2c6"/><path d="m261.621 183.062c-1.5 1.407-2.939 2.895-4.311 4.408-.18.2-.355.4-.534.6a33.328 33.328 0 0 1 16.909 18.753q1.563-3.133 3.21-6.24a34.833 34.833 0 0 0 -15.274-17.521z" fill="#35495e"/></g><path d="m280 24h16v472h-16z" fill="#e22526"/><path d="m311.822 269.151q.077 2.589-.067 5.178c-.968 17.542-10.44 38.289-26.433 47.03-9.258 5.061-21.414 5.5-30.024-.6a23.97 23.97 0 0 1 -9.887-17.308c-1.519-18.148 20.1-31.042 36.707-38.528-2.551-8.867-5.956-17.022-8.507-25.888-1.126-3.916-2.084-8.639.661-11.649a8.12 8.12 0 0 1 6.479-2.27 24.014 24.014 0 0 1 6.843 1.779 28.227 28.227 0 0 1 -.48-11.41c.748-3.448 3.542-6.724 7.068-6.8 2.451-.054 4.691 1.4 6.447 3.113 7.428 7.243 8.124 20.3 1.508 28.287.8-.97 7.305 13.992 7.729 15.576a58.858 58.858 0 0 1 1.956 13.49z" fill="#fad6c6"/><g><path d="m302.41 240.129a42.934 42.934 0 0 0 -26.223 7c.742 2.179 1.5 4.343 2.255 6.51a88 88 0 0 1 28.474-5.038c-1.729-3.825-3.716-7.852-4.506-8.472z" fill="#35495e"/><path d="m302.41 240.129c-.118-.093-.213-.118-.273-.046 6.616-7.992 5.92-21.044-1.508-28.286-1.756-1.712-4-3.168-6.447-3.114-3.526.077-6.32 3.353-7.067 6.8a28.208 28.208 0 0 0 .479 11.41 24.014 24.014 0 0 0 -6.843-1.779 8.12 8.12 0 0 0 -6.479 2.27c-2.745 3.01-1.787 7.733-.661 11.649.792 2.753 1.67 5.434 2.576 8.092a42.934 42.934 0 0 1 26.223-6.996z" fill="#bcc2c6"/><path d="m275.591 268.044c-15.206 7.732-31.506 19.568-30.18 35.406a23.97 23.97 0 0 0 9.887 17.308c8.61 6.1 20.766 5.662 30.024.6 10.186-5.567 17.721-16 22.1-27.383a59.646 59.646 0 0 0 -31.831-25.931z" fill="#f98800"/></g><path d="m245.34 301.91v.01a103.989 103.989 0 1 1 6.39-16.37v.01z" fill="#fad6c6"/><path d="m166.259 228.322c-13.615 12.22-27.34 25.767-40.956 37.986 21.56-33.084 26.877-76.172 14.3-113.569a104 104 0 1 0 77.881 184.048c-3.798-41.35-20.171-80.616-51.225-108.465z" fill="#683b11"/><path d="m263.692 253.8a8 8 0 0 0 -9.89-5.494l-52.1 14.884-81.702-55.19v16l69.912 50.289-37.067 74.133 14.31 7.156 38.426-76.852 52.619-15.034a8 8 0 0 0 5.492-9.892z" fill="#00a8e7"/><path d="m184 200h-8a8 8 0 0 1 0-16h8a8 8 0 0 1 0 16z" fill="#683b11"/><path d="m120.3 130.646 56.157 248.709a127.54 127.54 0 0 1 -56.157-248.709z" fill="#fcc200"/><g><path d="m116.42 131.715q-4.055 1.177-8 2.606a192.2 192.2 0 0 1 -14.749 103.133 192.109 192.109 0 0 1 -56.475 72.3 128.074 128.074 0 0 0 50.404 54.515c17.472-30.669 27.024-65.982 30.927-101.263 4.825-43.578 1.629-87.568-2.107-131.291z" fill="#f98800"/><path d="m176.461 379.355-56.161-248.709c-1.3.333-2.6.7-3.884 1.069 3.736 43.723 6.932 87.713 2.111 131.291-3.9 35.281-13.455 70.594-30.927 101.263a127.781 127.781 0 0 0 88.857 15.086z" fill="#d87100"/></g><path d="m161.577 265.788c-4.514 1.8-7.474 6.244-9.088 10.829-2.013 5.715-2.3 12.232.26 17.722s8.309 9.647 14.361 9.343c26.16-1.316 20.824-48.414-5.533-37.894z" fill="#fad6c6"/><circle cx="216" cy="224" fill="#f78663" r="16"/></g><path d="m422.946 372.031c-10.546-18.463-21.712-33.231-32.586-47.351 15.9 2.575 18.017-46.707 15.476-54.141-5.877-24.025-34.059-18.952-38.553 3.139a48.829 48.829 0 0 0 -11.375-.635c-8.794-17.364-11.1-36.64-14.636-58.657-7.725-36.591-20.03-64.111-45.272-87.622v-110.764h-16v99.18c-19.093-12.043-46.762-12.765-72.628-18.6-50.972-8.152-92.932-32.624-103.372-80.58h-16c24.9 116.555 158.488 86.2 192 118.375v31.8c-16.3.395-27.581 13.953-36.43 25.409-23.408-34.248-68.56-53.995-111.64-45.775-4.5-34.831-15.453-22.213-38.7-13.795-52.919 25.165-84.739 83.395-74.994 143.986 11.426 72.3 80.463 123.323 153.83 112.223 18.176-.854 11.151-13.311 9.161-24.087a111.144 111.144 0 0 0 42.217-21.9c16.445 17.042 34.37 34.525 56.556 42.327v111.437h16v-108c8.923 1.015 20.939-.654 29.3-5.015 1.918 1.107 3.847 2.224 5.77 3.361-7.788 32.323 28.161 35.589 51.172 35.793 29.457-3.273 19.934-31.287-1.844-38.935a7.963 7.963 0 0 0 -.894-1.631c3.749-20.776-5.631-37.127-22.156-43.523 1.232-4.451 2.248-8.923 3.176-13.365h9.655c63.085 78.887 60 100.291 45.82 171.32h16c4.408-30.334 21.614-67.225-9.053-123.974zm-38.58-98.7c11.828-12.73 4.325 31.985 2.01 35.348h-4.469a67.641 67.641 0 0 0 -1.671-20.035c2.521-3.585 1.564-11.22 4.13-15.312zm-83.876-117.681c30.742 42.579 23.621 89.151 39.517 121.064-19.837 7.738-19.786 25.187-27.482 25.469 9.776-20.316 9.939-43.192-.847-62.245 6.5-12.79 1.944-32.668-12.483-38.394 7.315-8.577 6.45-23.144-3.195-30.28v-21.439c1.537 1.875 3.042 3.798 4.49 5.825zm-33.735 88.35c1.6 5.168 3.649 10.777 5.653 16.687q-4.736 2.391-8.831 4.889a113.5 113.5 0 0 0 .365-13.017q1.339-4.302 2.813-8.559zm18.651 28.211c12.174-6.984-5.3-29.674-4.9-39.1 15.54 5.535 15.371-4.339 14.39-15.739 4.39 3.99 5.042 12.773 1.082 17.6a8 8 0 0 0 .811 11.047c9.63 15.993 9.048 34.41.283 51.4-27.91 47.253-75.2-.819-11.666-25.204zm-7.872-54.922q.933-2.012 1.892-4.007a23.005 23.005 0 0 0 -.614 3.859c-.432.035-.856.091-1.278.152zm18.466 106.511.022-.017-.022.041zm-32.764-130.95c4.08-4.268 9.641-10.247 16.764-10.683v9.958c-12.515-3.341-17.063 22.335-21.6 28.9a111.28 111.28 0 0 0 -5.862-14.339 113.014 113.014 0 0 1 10.698-13.841zm-111.236-32.85a96.118 96.118 0 0 1 95.808 90.02l-46.3 13.228-51.345-36.675-14.709-65.141a96.811 96.811 0 0 1 16.546-1.432zm3.459 90.016 34.329 24.521-19.835 39.669zm-3.459 123.693c-137.7-4.262-163.9-188.173-37.625-233l52.405 232.091a120.531 120.531 0 0 1 -14.78.909zm23.518-34.857 30.063-60.126 41.812-11.947a95.434 95.434 0 0 1 -2.937 15.069 32.447 32.447 0 0 0 -7.072 18.038c-11.673 23.114-34.331 41.843-59.684 48.621zm59.488-7.7a111.368 111.368 0 0 0 8.637-10.779c7.757 10.858 22.795 15.143 36.357 11.6v19.406c-2.566 4-5.194 7.953-7.919 11.84-12.273-7.505-25.987-20.197-37.075-32.065zm60.994 40.789v-15.87a366.009 366.009 0 0 0 20.68-37.971c5.1-.378 10.738-4.723 14.017-10.494a47.96 47.96 0 0 1 14 14.564c-4.912 27.174-18.004 53.721-48.697 49.771zm88.544 33.559c-10.971 2.414-25.239-.8-35.788-5.709a124.113 124.113 0 0 0 19.606-3.824c6.577 2.01 12.415 4.303 16.182 9.533zm-23.276-45.059c3.79 6.582 3.187 12.729 2.2 20.295a108.106 108.106 0 0 1 -15.5 3.053c.764-5.627-3.407-8.34-8.734-11.193a68.281 68.281 0 0 0 12.78-19.413c4.479 2.089 7.386 4.395 9.254 7.261zm-6.443-51.764a64.5 64.5 0 0 0 -14.468-13.848c5.655-4.551 15.73-6.893 23.517-5.522a51.166 51.166 0 0 1 1.987 19.37z"/></g></svg>