<svg height="40" viewBox="0 0 512 512" width="40" xmlns="http://www.w3.org/2000/svg"><g><g><path d="m200 264a70.2 70.2 0 0 0 -48 66.6v37.4a32 32 0 0 0 32 32 32 32 0 0 0 32-32v-104z" fill="#fcc200"/><path d="m192 327.344a62.374 62.374 0 0 0 -8.076 51.734l6.513 22.8a16 16 0 0 1 -.678 10.7l-12.3 28.712a116.924 116.924 0 0 0 -9.459 46.054h64a33.3 33.3 0 0 0 -22.768-31.59l-1.232-.41 22.311-44.622a15.994 15.994 0 0 0 1.689-7.155v-20.223l39.668 13.222a16 16 0 0 1 10.462 11.3l13.87 55.478h64a35.448 35.448 0 0 0 -22.283-32.913l-17.717-7.087-6.893-48.253a16 16 0 0 0 -7.9-11.63l-49.207-28.117v-64h-64z" fill="#fad6c6"/><path d="m256 288 41.713 13.9a16 16 0 0 0 12.215-.868l40.383-20.191a7.994 7.994 0 0 1 3.578-.845h6.111a8 8 0 0 1 8 8h8a16 16 0 0 1 16 16 16 16 0 0 1 -16 16h-24l-44.442 7.407a16 16 0 0 1 -7.026-.4l-52.532-15.003z" fill="#fad6c6"/><path d="m309.928 301.38a16 16 0 0 1 -12.215.868l-41.713-13.904-8 24 52.532 15.009a16.012 16.012 0 0 0 7.026.4l27.863-4.644-6.268-31.34z" fill="#f98800"/><path d="m23.99 384a8 8 0 0 1 -.827-15.957l152-16a8 8 0 1 1 1.674 15.912l-152 16a8.067 8.067 0 0 1 -.847.045z" fill="#333"/><path d="m192 280.344-49.3 35.214a16 16 0 0 0 -6.7 13.02v40.933a14.833 14.833 0 0 0 14.833 14.833 14.833 14.833 0 0 0 13.267-8.2 36.938 36.938 0 0 0 3.9-16.521v-22.223a16 16 0 0 1 7.768-13.72l32.232-19.336z" fill="#fad6c6"/><path d="m208 304.34-32.23 19.34a16 16 0 0 0 -7.77 13.72v12.6h-32v-21.42a16 16 0 0 1 6.7-13.02l49.3-35.22z" fill="#f98800"/><path d="m399.991 464a8 8 0 0 1 -7.873-6.63l-32-184a8 8 0 0 1 15.764-2.742l32 184a8 8 0 0 1 -6.511 9.253 8.116 8.116 0 0 1 -1.38.119z" fill="#333"/><g><g fill="#f98800"><path d="m256 272.344h-64v56a62.237 62.237 0 0 0 -3.347 5.656h67.347z"/><path d="m177.454 442.284a116.924 116.924 0 0 0 -9.454 46.06h64a33.3 33.3 0 0 0 -22.768-31.59l-1.232-.41 5.643-11.287-31.907-12.763z"/><path d="m337.717 431.43-17.717-7.086-1.437-10.057-33.407 6.682 10.844 43.375h64a35.451 35.451 0 0 0 -22.283-32.914z"/></g><path d="m313.107 376.091a16 16 0 0 0 -7.9-11.63l-49.207-28.117v-2.344h-67.347a62.37 62.37 0 0 0 -4.729 46.078l6.513 22.8a16 16 0 0 1 -.678 10.7l-8.023 18.721 31.907 12.763 16.668-33.335a16 16 0 0 0 1.689-7.16v-20.223l39.668 13.222a16 16 0 0 1 10.462 11.3l3.026 12.1 33.407-6.682z" fill="#35495e"/></g><path d="m217.957 205.126c26.064-7.515 52.025-16.216 75.49-29.825s44.475-32.5 56.962-56.578c6.541-12.615 10.47-28.4 3.326-40.681-5.16-8.875-15.258-14.017-25.42-15.469s-20.5.311-30.532 2.465a392.5 392.5 0 0 0 -176.741 89.281c-9.661 8.545-18.923 17.679-26.657 28.035-4.094 5.484-19.441 25.8-13.1 31.454 3.958 3.53 15.565 4.011 20.682 4.8a168.717 168.717 0 0 0 21.9 1.875 235 235 0 0 0 44.318-3.582 451.133 451.133 0 0 0 49.772-11.775z" fill="#e2acb9"/><circle cx="224" cy="160" fill="#fad6c6" r="136"/><path d="m304 160a8 8 0 0 1 -8-8v-8a8 8 0 0 1 16 0v8a8 8 0 0 1 -8 8z" fill="#683b11"/><path d="m360 168h-8a8 8 0 0 1 0-16h8a8 8 0 0 1 0 16z" fill="#fad6c6"/><circle cx="272" cy="200" fill="#f78663" r="32"/><path d="m340.546 209.541a34.55 34.55 0 0 1 -15.233-3.49 8 8 0 0 1 7.06-14.358 19.242 19.242 0 0 0 18.928-1.417 8 8 0 1 1 9.118 13.147 34.957 34.957 0 0 1 -19.873 6.118z" fill="#f99c78"/><path d="m225.15 86.54a173.97 173.97 0 0 1 -38.68 91.88 174.084 174.084 0 0 1 -79.1 53.91 135.136 135.136 0 0 1 -19.08-61.16 480.5 480.5 0 0 1 136.86-84.63z" fill="#5b0b3c"/><path d="m96.761 188.789a43.613 43.613 0 0 0 -60.13 39.026c-.323 10.594 3.193 20.871 6.182 31.04s5.5 20.944 3.154 31.281-10.94 19.982-21.537 20.125l.387 1.938c20.956 15.489 51.243 13.259 69.683-5.153s20.873-50.578 5.415-71.556a23.4 23.4 0 0 0 -.435-45.552c-1.606 2.499-1.113-3.647-2.719-1.149z" fill="#5b0b3c"/><g fill="#f48da1"><path d="m311.71 58.12a481.646 481.646 0 0 0 -225.42 111.05c-.2-2.92-.29-5.87-.29-8.83a136 136 0 0 1 225.71-102.22z"/><path d="m333.879 71.943c-12.261-1.535-24.343 3.955-34.634 10.8s-19.655 15.2-30.773 20.591c-25.485 12.365-56.545 7.562-82.436 19.054-21.4 9.5-36.5 28.806-51.4 46.863s-31.809 36.413-54.387 42.612c-.949-27.146 6.751-46.863 6.751-46.863s33.6-55.5 50.8-66.054c28.188-17.3 53.661-28 85.2-37.946s57.155-19.928 88-8c8.968 3.468 30.276 9.482 36.777 16.567 5.464 5.954 10.933 15.572 9.228 23.868-3.046-11.02-10.97-19.97-23.126-21.492z"/></g></g><g><g><path d="m304 160c11.677.13 10.4-23.455 1.183-23.913-13.271-2.27-11.998 25.013-1.183 23.913z"/><path d="m407.882 454.629-21.989-126.429c23.257-11.388 15.657-43.663-7.959-45.775-1.635-28.877-20.31-17.936-17.646-8.075-17.371-1.256-38.3 15.878-53.937 21.873-3.946 2.767-15.909-3.294-19.856-4.145a144.917 144.917 0 0 0 76.259-91.178 8.034 8.034 0 0 0 1.1-4.218 145.253 145.253 0 0 0 -2.874-78.882 61.551 61.551 0 0 0 4.42-18.312c5.832-36.563-34.991-45.352-55.476-52.709a143.355 143.355 0 0 0 -47.177-23.165c-93.487-25.843-185.323 45.944-182.69 142.83a111.951 111.951 0 0 0 -3.2 11.3 51.469 51.469 0 0 0 -43.087 29.1c-17.348 33.534 15.746 65.542 1.378 88.469-6.176 10.609-14.116 3.119-18.3 12.368-3.025 9.664 7.535 14.224 15.1 17.813a61.9 61.9 0 0 0 68.191-12.783c13.794-13.78 19.764-34.214 17.337-53.439a143.565 143.565 0 0 0 38.367 29.945 77.744 77.744 0 0 0 -6.919 14.055c-28.438 16.886-19.524 28.951-20.924 53.736-.017 0-58.715 6.178-88.292 9.294-12.8 1.9-16.7.172-21.56 4.242-9.429 19.049 15.008 12.111 29.133 11.049l80.78-8.5a22.943 22.943 0 0 0 25.68 21.058 39.725 39.725 0 0 0 29.2 13.819c.482 5.989-12.387 30.292-14.116 36.247-6.952 18.211-12.511 45.721-6.076 52.168 7.845 4.44 10.6.917 28.968 1.963 28.009-2.082 50.457 7.073 48.128-11.456-1.174-13.694-8.475-25.329-20.9-32.549 6.3-14.666 24.246-40.068 21.053-56.9 1.269.533 28.834 9.458 30.084 10.1 4.657 2.748 4.022 5.114 6 12.128 1.645 6.629 6.008 24 10.616 42.468 2.777 15.081 7.159 11.887 23.345 12.206 23.166-.444 49.59 1.024 53.5-.829 6.305-2.9 4.512-10.4 3.4-16.723-5.283-22.72-21.268-29.349-39.682-36.163-4.141-20.99-2.946-55.82-18.674-61.451l-44.587-25.479v-6.462c50.82 16.649 45.874 8.968 88.661 3.1h17.363c.006.021 20.355 117.037 21.991 126.438-.547 6.881 15.385 12.733 15.867-2.147zm-207.882-126.629v-23.658a146.482 146.482 0 0 0 48 0v23.658zm2.6 123.257c-9.955 20.182 12.3 8.68 20.11 31.083h-46.42a112.016 112.016 0 0 1 9.723-37.719c3.728 1.491 12.928 5.171 16.587 6.636zm-20.446-120.066a71.1 71.1 0 0 0 -6.154 15.26c-.365-5.965-.4-12.739 6.165-15.28zm-10.9 50.527a44.811 44.811 0 0 0 2.9-7.366c.469 4.489 2.647 12.113 4.081 16.948a23.772 23.772 0 0 1 -9.92-5.129 22.855 22.855 0 0 0 2.94-4.453zm147.21-313.384c-11.083 2.845-21.838 9.734-31.987 17.363-40.367 35.228-92.355 11.71-128.738 49.937-23.908 21.466-38.899 52.366-68.375 67.594a130.322 130.322 0 0 1 4.11-25.964c63.526-57.054 143.117-93.133 224.933-110.664q1.433.528 2.863 1.072c-.712.164-1.052.222-2.806.662zm-112.943 62.966c-16.619 41.065-52.026 75.714-94.5 91.244-1.572-2.985-3.069-5.9-5.007-10.493 37.289-24.015 54.386-76.523 101.022-84.538-.289.735-.636 1.687-1.515 3.787zm18.479-96.96a127.7 127.7 0 0 1 71.144 21.572 492.007 492.007 0 0 0 -131.344 51.558 484.681 484.681 0 0 0 -67.522 46.4 128.164 128.164 0 0 1 127.722-119.53zm-135.152 267.049c-12.348 12.329-31.306 16.079-47.448 10.561 41.535-36.391-34.146-97.747 32.663-117.8-.353 13.826-6.906 37.065 17.8 25.5 1.1 2.552 2.1 4.724 4.2 8.831-9.714 5.931.875 15 3.021 22.27 6.258 17.049 2.416 37.798-10.236 50.638zm30.738-64.98a180.662 180.662 0 0 0 105.464-111.73c70.393-7.455 54.141-25.735 99.651-41.376a127.5 127.5 0 0 1 26.866 68.719c-10.314.922-9.545 15.533.3 15.971a127.86 127.86 0 0 1 -3.282 23.814c-5.717 2.768-12.333 1.723-18.43-.83-5.957-1.171-11.058 5.084-8.681 11 4 7.2 13.861 7.406 21.555 7.476-39.461 96.466-165.883 107.889-223.443 26.956zm24.414 94.171c-.01-6.556 8.585-9.564 15.478-15.175l.811-.579 20.931-14.953c.922.286 1.848.567 2.78.836v10.7c-16.634 8.959-25.3 15.7-24 32.588h-16zm0 40.93v-11.51h16c2.042 11.246-10 28.383-16 11.51zm90.531 7.241c-17.086-3.761-7.663 24.3-11.392 31.421l-13.361 26.728c-4.242-1.7-13.215-5.288-17.458-6.987 19.169-34.489-14.527-49.236 1.4-85.908h56.622c66.109 40.951 51.3 17.617 59.225 65.927l-18.5 3.7c-1.729-25.132-39.73-27.146-56.536-34.881zm104.443 64.238c5.108 3.222 9.976 8.533 11.688 15.351h-48.415l-7.293-29.17 16.886-3.378c.46 11.085 19.953 11.657 27.134 17.197zm-74.974-132.389v-9.152c30.183 9.529 38.319 17.542 59.361 4.165l2.6 12.968c-3.441.252-20.323 4.2-23.229 3.082.025.002-38.684-11.054-38.732-11.063zm88 3.745c.06-.191-10.114 1.593-10.255 1.6l-3.552-17.747 15.7-7.85h6.107a8.4 8.4 0 0 0 9.579 8c18.473-2.579 17.809 14.95 6.421 16 .033-.042-23.9.017-24-.008z"/></g><path d="m16 464a8 8 0 0 1 -2.973-15.43l40-16a8 8 0 0 1 2.973-.57h62.459l38.57-15.428a8 8 0 0 1 5.942 14.856l-40 16a8 8 0 0 1 -2.971.572h-62.459l-38.57 15.428a7.992 7.992 0 0 1 -2.971.572z"/><path d="m400 288a8 8 0 0 1 -5.657-13.657l39.3-39.3 23.493-39.156a8 8 0 0 1 3.282-3.039l32-16a8 8 0 1 1 7.156 14.31l-29.917 14.958-22.8 38a8.05 8.05 0 0 1 -1.2 1.541l-40 40a7.976 7.976 0 0 1 -5.657 2.343z"/><path d="m400.005 496a8 8 0 0 1 -5-14.247l39.654-31.723 39.687-39.687a8 8 0 0 1 11.314 11.314l-40 40a8.38 8.38 0 0 1 -.659.59l-40 32a7.969 7.969 0 0 1 -4.996 1.753z"/><path d="m408 360a8 8 0 0 1 -2.973-15.43l38.823-15.529 47.026-39.189a8 8 0 0 1 10.244 12.292l-48 40a7.989 7.989 0 0 1 -2.151 1.282l-40 16a7.992 7.992 0 0 1 -2.969.574z"/><path d="m336 384a8 8 0 0 1 -2.529-15.592l24-8a8 8 0 0 1 5.06 15.18l-24 8a8.015 8.015 0 0 1 -2.531.412z"/></g></g></svg>